<svg xmlns="http://www.w3.org/2000/svg" width="30.537" height="24.399" viewBox="0 0 30.537 24.399">
  <g id="filter" transform="translate(-639.855 53)">
    <path id="Path_48" data-name="Path 48" d="M20.629,135.5c-2.754,0-5.508,0-8.262-.007a.408.408,0,0,0-.468.345,6.1,6.1,0,1,1,.01-3.7c.084.268.214.309.455.309q8.262-.008,16.524,0a1.528,1.528,0,1,1,0,3.051c-1.264.008-2.527,0-3.791,0H20.629M6.1,130.928a3.043,3.043,0,1,0,3.059,3.028A3.049,3.049,0,0,0,6.1,130.928" transform="translate(639.855 -168.672)" fill="#202428"/>
    <path id="Path_49" data-name="Path 49" d="M30.562,6.091A6.106,6.106,0,0,1,18.631,7.928c-.086-.274-.223-.3-.459-.3q-8.262.006-16.524,0A1.514,1.514,0,0,1,.028,6.065a1.483,1.483,0,0,1,1.2-1.442,3.241,3.241,0,0,1,.6-.046q8.137,0,16.273,0c.306,0,.448-.067.547-.383a6.1,6.1,0,0,1,11.8.9c.05.328.07.661.1.992M24.429,9.143A3.043,3.043,0,1,0,21.386,6.1a3.048,3.048,0,0,0,3.044,3.043" transform="translate(639.83 -53)" fill="#202428"/>
  </g>
</svg>
