<?xml version="1.0" encoding="UTF-8"?>
<svg version="1.1" xmlns="http://www.w3.org/2000/svg" width="96" height="96">
<path d="M0 0 C1.10794922 -0.01260864 2.21589844 -0.02521729 3.35742188 -0.03820801 C4.54916016 -0.03011108 5.74089844 -0.02201416 6.96875 -0.01367188 C8.19658203 -0.01749878 9.42441406 -0.02132568 10.68945312 -0.02526855 C13.28516459 -0.02799029 15.88090336 -0.02061099 18.4765625 -0.00390625 C22.45374599 0.01749738 26.42912282 -0.0037015 30.40625 -0.02929688 C32.92708733 -0.02665365 35.44792353 -0.02152878 37.96875 -0.01367188 C39.16048828 -0.0217688 40.35222656 -0.02986572 41.58007812 -0.03820801 C43.24200195 -0.01929504 43.24200195 -0.01929504 44.9375 0 C45.91138672 0.00318237 46.88527344 0.00636475 47.88867188 0.00964355 C51.21238472 0.66397593 52.40460817 1.87961562 54.46875 4.51757812 C55.47313542 10.23371282 55.29291308 15.74245765 52.84375 21.01757812 C45.57450463 28.66941535 38.27871772 32.35240091 27.7734375 32.75585938 C14.50227706 33.02814466 4.24455152 32.64513045 -5.97265625 23.29882812 C-9.40614044 19.3748462 -9.84681664 16.20016746 -9.90625 11.01757812 C-9.93460938 9.89351562 -9.96296875 8.76945312 -9.9921875 7.61132812 C-9.10822897 1.67831831 -5.65637729 0.01848336 0 0 Z " fill="#000000" transform="translate(25.53125,55.482421875)"/>
<path d="M0 0 C4.68796317 2.8950501 8.77605467 6.42344712 10.234375 11.89453125 C11.16656452 18.74158704 11.3930195 24.99387098 7.671875 31.01953125 C3.66347868 35.99068326 0.31000422 38.47580101 -6.0078125 39.3359375 C-13.1275177 39.69575056 -18.34453314 39.19135672 -23.98828125 34.640625 C-29.08369757 29.63479842 -30.03494232 26.05750776 -30.390625 19.01953125 C-30.17838344 12.13997715 -28.58962241 7.80486419 -23.765625 2.89453125 C-17.29271618 -2.6344117 -7.84970384 -3.13766411 0 0 Z " fill="#000000" transform="translate(57.765625,9.10546875)"/>
</svg>
